<mxfile host="Electron" agent="Mozilla/5.0 (Windows NT 10.0; Win64; x64) AppleWebKit/537.36 (KHTML, like Gecko) draw.io/26.0.4 Chrome/128.0.6613.186 Electron/32.2.5 Safari/537.36" version="26.0.4">
  <diagram name="Page-1" id="1EQA6ZPCqCZ-ybofqLkl">
    <mxGraphModel dx="1036" dy="614" grid="1" gridSize="10" guides="1" tooltips="1" connect="1" arrows="1" fold="1" page="1" pageScale="1" pageWidth="850" pageHeight="1100" math="0" shadow="0">
      <root>
        <mxCell id="0" />
        <mxCell id="1" parent="0" />
        <mxCell id="vUyiab0mQkmtP2N118zk-1" value="" style="edgeStyle=none;orthogonalLoop=1;jettySize=auto;html=1;rounded=0;shape=link;" parent="1" edge="1">
          <mxGeometry width="80" relative="1" as="geometry">
            <mxPoint x="10" y="60" as="sourcePoint" />
            <mxPoint x="840" y="60" as="targetPoint" />
            <Array as="points">
              <mxPoint x="400" y="60" />
            </Array>
          </mxGeometry>
        </mxCell>
        <mxCell id="vUyiab0mQkmtP2N118zk-2" value="&lt;font style=&quot;font-size: 23px;&quot; face=&quot;Times New Roman&quot;&gt;&lt;b&gt;PD Data Streaming Flow in LU Code&lt;/b&gt;&lt;/font&gt;" style="text;strokeColor=none;align=left;fillColor=none;html=1;verticalAlign=middle;whiteSpace=wrap;rounded=0;" parent="1" vertex="1">
          <mxGeometry x="10" y="20" width="620" height="30" as="geometry" />
        </mxCell>
        <mxCell id="PK5YH-Q8zY07cRHNymo_-3" style="edgeStyle=orthogonalEdgeStyle;rounded=0;orthogonalLoop=1;jettySize=auto;html=1;entryX=0.5;entryY=0;entryDx=0;entryDy=0;" edge="1" parent="1" source="vUyiab0mQkmtP2N118zk-5" target="PK5YH-Q8zY07cRHNymo_-2">
          <mxGeometry relative="1" as="geometry" />
        </mxCell>
        <mxCell id="vUyiab0mQkmtP2N118zk-5" value="&lt;font face=&quot;Courier New&quot; style=&quot;font-size: 17px;&quot;&gt;pddau.c&lt;/font&gt;" style="swimlane;whiteSpace=wrap;html=1;swimlaneFillColor=none;rounded=1;fillColor=#1ba1e2;strokeColor=#006EAF;fontColor=#ffffff;strokeWidth=2;perimeterSpacing=4;glass=0;shadow=1;" parent="1" vertex="1">
          <mxGeometry x="10" y="100" width="250" height="60" as="geometry" />
        </mxCell>
        <mxCell id="vUyiab0mQkmtP2N118zk-6" value="&lt;div style=&quot;color: rgb(204, 204, 204); background-color: rgb(31, 31, 31); font-family: Consolas, &amp;quot;Courier New&amp;quot;, monospace; font-size: 14px; line-height: 19px; white-space-collapse: preserve;&quot;&gt;&lt;span style=&quot;color: #569cd6;&quot;&gt;void&lt;/span&gt;&lt;span style=&quot;color: #d4d4d4;&quot;&gt;*&lt;/span&gt; &lt;span style=&quot;color: #dcdcaa;&quot;&gt;RunPDDAU&lt;/span&gt;(&lt;span style=&quot;color: #569cd6;&quot;&gt;void&lt;/span&gt; &lt;span style=&quot;color: #d4d4d4;&quot;&gt;*&lt;/span&gt;&lt;span style=&quot;color: #9cdcfe;&quot;&gt;params&lt;/span&gt;)&lt;/div&gt;" style="text;html=1;align=center;verticalAlign=middle;resizable=0;points=[];autosize=1;strokeColor=none;fillColor=none;" parent="vUyiab0mQkmtP2N118zk-5" vertex="1">
          <mxGeometry x="5" y="25" width="240" height="30" as="geometry" />
        </mxCell>
        <mxCell id="vUyiab0mQkmtP2N118zk-9" value="&lt;font face=&quot;Courier New&quot; style=&quot;font-size: 17px;&quot;&gt;spectrum_packet.h&lt;/font&gt;" style="swimlane;whiteSpace=wrap;html=1;swimlaneFillColor=none;rounded=1;fillColor=#1ba1e2;strokeColor=#006EAF;fontColor=#ffffff;strokeWidth=2;perimeterSpacing=4;glass=0;shadow=1;" parent="1" vertex="1">
          <mxGeometry x="490" y="100" width="310" height="190" as="geometry" />
        </mxCell>
        <mxCell id="vUyiab0mQkmtP2N118zk-8" value="&lt;div style=&quot;color: #cccccc;background-color: #1f1f1f;font-family: Consolas, &#39;Courier New&#39;, monospace;font-weight: normal;font-size: 14px;line-height: 19px;white-space: pre;&quot;&gt;&lt;div&gt;&lt;span style=&quot;color: #569cd6;&quot;&gt;typedef&lt;/span&gt;&lt;span style=&quot;color: #cccccc;&quot;&gt; &lt;/span&gt;&lt;span style=&quot;color: #569cd6;&quot;&gt;struct&lt;/span&gt;&lt;/div&gt;&lt;div&gt;&lt;span style=&quot;color: #cccccc;&quot;&gt;{&lt;/span&gt;&lt;/div&gt;&lt;div&gt;&lt;span style=&quot;color: #cccccc;&quot;&gt;&amp;nbsp; &amp;nbsp; &lt;/span&gt;&lt;span style=&quot;color: #569cd6;&quot;&gt;unsigned&lt;/span&gt;&lt;span style=&quot;color: #cccccc;&quot;&gt; &lt;/span&gt;&lt;span style=&quot;color: #569cd6;&quot;&gt;char&lt;/span&gt;&lt;span style=&quot;color: #cccccc;&quot;&gt; &lt;/span&gt;&lt;span style=&quot;color: #9cdcfe;&quot;&gt;msg_id&lt;/span&gt;&lt;span style=&quot;color: #cccccc;&quot;&gt;;&lt;/span&gt;&lt;/div&gt;&lt;div&gt;&lt;span style=&quot;color: #cccccc;&quot;&gt;&amp;nbsp; &amp;nbsp; &lt;/span&gt;&lt;span style=&quot;color: #569cd6;&quot;&gt;unsigned&lt;/span&gt;&lt;span style=&quot;color: #cccccc;&quot;&gt; &lt;/span&gt;&lt;span style=&quot;color: #569cd6;&quot;&gt;char&lt;/span&gt;&lt;span style=&quot;color: #cccccc;&quot;&gt; &lt;/span&gt;&lt;span style=&quot;color: #9cdcfe;&quot;&gt;msg_type&lt;/span&gt;&lt;span style=&quot;color: #cccccc;&quot;&gt;;&lt;/span&gt;&lt;/div&gt;&lt;div&gt;&lt;span style=&quot;color: #cccccc;&quot;&gt;&amp;nbsp; &amp;nbsp; &lt;/span&gt;&lt;span style=&quot;color: #569cd6;&quot;&gt;short&lt;/span&gt;&lt;span style=&quot;color: #cccccc;&quot;&gt; &amp;nbsp; &amp;nbsp; &amp;nbsp; &amp;nbsp; &lt;/span&gt;&lt;span style=&quot;color: #9cdcfe;&quot;&gt;body_len&lt;/span&gt;&lt;span style=&quot;color: #cccccc;&quot;&gt;;&lt;/span&gt;&lt;/div&gt;&lt;div&gt;&lt;span style=&quot;color: #cccccc;&quot;&gt;} &lt;/span&gt;&lt;span style=&quot;color: #4ec9b0;&quot;&gt;SPECTRUM_PACKET_HEADER&lt;/span&gt;&lt;span style=&quot;color: #cccccc;&quot;&gt;;&lt;/span&gt;&lt;/div&gt;&lt;/div&gt;" style="text;whiteSpace=wrap;html=1;" parent="vUyiab0mQkmtP2N118zk-9" vertex="1">
          <mxGeometry x="20" y="35" width="240" height="140" as="geometry" />
        </mxCell>
        <mxCell id="vUyiab0mQkmtP2N118zk-12" value="&lt;font face=&quot;Courier New&quot; style=&quot;font-size: 17px;&quot;&gt;spectrum_packet.h&lt;/font&gt;" style="swimlane;whiteSpace=wrap;html=1;swimlaneFillColor=none;rounded=1;fillColor=#1ba1e2;strokeColor=#006EAF;fontColor=#ffffff;strokeWidth=2;perimeterSpacing=4;glass=0;shadow=1;" parent="1" vertex="1">
          <mxGeometry x="490" y="310" width="320" height="150" as="geometry" />
        </mxCell>
        <mxCell id="vUyiab0mQkmtP2N118zk-11" value="&lt;div style=&quot;color: #cccccc;background-color: #1f1f1f;font-family: Consolas, &#39;Courier New&#39;, monospace;font-weight: normal;font-size: 14px;line-height: 19px;white-space: pre;&quot;&gt;&lt;div&gt;&lt;span style=&quot;color: #569cd6;&quot;&gt;typedef&lt;/span&gt;&lt;span style=&quot;color: #cccccc;&quot;&gt; &lt;/span&gt;&lt;span style=&quot;color: #569cd6;&quot;&gt;struct&lt;/span&gt;&lt;/div&gt;&lt;div&gt;&lt;span style=&quot;color: #cccccc;&quot;&gt;{&lt;/span&gt;&lt;/div&gt;&lt;div&gt;&lt;span style=&quot;color: #cccccc;&quot;&gt;&amp;nbsp; &amp;nbsp; &lt;/span&gt;&lt;span style=&quot;color: #4ec9b0;&quot;&gt;SPECTRUM_PACKET_HEADER&lt;/span&gt;&lt;span style=&quot;color: #cccccc;&quot;&gt; &lt;/span&gt;&lt;span style=&quot;color: #9cdcfe;&quot;&gt;header&lt;/span&gt;&lt;span style=&quot;color: #cccccc;&quot;&gt;; &amp;nbsp;&lt;/span&gt;&lt;/div&gt;&lt;div&gt;&lt;span style=&quot;color: #cccccc;&quot;&gt;&amp;nbsp; &amp;nbsp; &lt;/span&gt;&lt;span style=&quot;color: #4ec9b0;&quot;&gt;MSG_PD_BODY&lt;/span&gt;&lt;span style=&quot;color: #cccccc;&quot;&gt; &lt;/span&gt;&lt;span style=&quot;color: #9cdcfe;&quot;&gt;data&lt;/span&gt;&lt;span style=&quot;color: #cccccc;&quot;&gt;[&lt;/span&gt;&lt;span style=&quot;color: #b5cea8;&quot;&gt;4&lt;/span&gt;&lt;span style=&quot;color: #cccccc;&quot;&gt;];&lt;/span&gt;&lt;/div&gt;&lt;div&gt;&lt;span style=&quot;color: #cccccc;&quot;&gt;} &lt;/span&gt;&lt;span style=&quot;color: #4ec9b0;&quot;&gt;MSG_PD_FULL_PACKET&lt;/span&gt;&lt;span style=&quot;color: #cccccc;&quot;&gt;;&lt;/span&gt;&lt;/div&gt;&lt;/div&gt;" style="text;whiteSpace=wrap;html=1;" parent="vUyiab0mQkmtP2N118zk-12" vertex="1">
          <mxGeometry x="10" y="30" width="310" height="120" as="geometry" />
        </mxCell>
        <mxCell id="PK5YH-Q8zY07cRHNymo_-6" style="edgeStyle=orthogonalEdgeStyle;rounded=0;orthogonalLoop=1;jettySize=auto;html=1;exitX=0.5;exitY=1;exitDx=0;exitDy=0;entryX=0.5;entryY=0;entryDx=0;entryDy=0;" edge="1" parent="1" source="PK5YH-Q8zY07cRHNymo_-2" target="PK5YH-Q8zY07cRHNymo_-5">
          <mxGeometry relative="1" as="geometry" />
        </mxCell>
        <mxCell id="PK5YH-Q8zY07cRHNymo_-2" value="Connect to PDDAU using instruction&lt;div&gt;&lt;div style=&quot;color: rgb(204, 204, 204); background-color: rgb(31, 31, 31); font-family: Consolas, &amp;quot;Courier New&amp;quot;, monospace; font-size: 14px; line-height: 19px; white-space: pre;&quot;&gt;&lt;span style=&quot;color: #c586c0;&quot;&gt;if&lt;/span&gt; (&lt;span style=&quot;color: #dcdcaa;&quot;&gt;connect&lt;/span&gt;(&lt;span style=&quot;color: #9cdcfe;&quot;&gt;sockfd&lt;/span&gt;, (&lt;span style=&quot;color: #569cd6;&quot;&gt;SA&lt;/span&gt;&lt;span style=&quot;color: #d4d4d4;&quot;&gt;*&lt;/span&gt;)&lt;span style=&quot;color: #d4d4d4;&quot;&gt;&amp;amp;&lt;/span&gt;&lt;span style=&quot;color: #9cdcfe;&quot;&gt;servaddr&lt;/span&gt;, &lt;span style=&quot;color: #569cd6;&quot;&gt;sizeof&lt;/span&gt;(&lt;span style=&quot;color: #9cdcfe;&quot;&gt;servaddr&lt;/span&gt;)) &lt;span style=&quot;color: #d4d4d4;&quot;&gt;!=&lt;/span&gt; &lt;span style=&quot;color: #b5cea8;&quot;&gt;0&lt;/span&gt;)&lt;/div&gt;&lt;/div&gt;&lt;div&gt;If the connection fails, wait 40 second and try again as a loop&lt;/div&gt;" style="rounded=1;whiteSpace=wrap;html=1;" vertex="1" parent="1">
          <mxGeometry x="10" y="220" width="457.5" height="80" as="geometry" />
        </mxCell>
        <mxCell id="PK5YH-Q8zY07cRHNymo_-8" style="edgeStyle=orthogonalEdgeStyle;rounded=0;orthogonalLoop=1;jettySize=auto;html=1;exitX=0.5;exitY=1;exitDx=0;exitDy=0;entryX=0.5;entryY=0;entryDx=0;entryDy=0;" edge="1" parent="1" source="PK5YH-Q8zY07cRHNymo_-5" target="PK5YH-Q8zY07cRHNymo_-7">
          <mxGeometry relative="1" as="geometry" />
        </mxCell>
        <mxCell id="PK5YH-Q8zY07cRHNymo_-5" value="If connection is made, get amplification values&lt;div&gt;&lt;div style=&quot;color: rgb(204, 204, 204); background-color: rgb(31, 31, 31); font-family: Consolas, &amp;quot;Courier New&amp;quot;, monospace; font-size: 14px; line-height: 19px; white-space: pre;&quot;&gt;&lt;span style=&quot;color: rgb(220, 220, 170);&quot;&gt;getAmplification&lt;/span&gt;(&lt;span style=&quot;color: rgb(181, 206, 168);&quot;&gt;0&lt;/span&gt;, &lt;span style=&quot;color: rgb(156, 220, 254);&quot;&gt;sockfd&lt;/span&gt;, &lt;span style=&quot;color: rgb(156, 220, 254);&quot;&gt;msg_rf_info_packet&lt;/span&gt;);&lt;/div&gt;&lt;div&gt;Then set amplification&lt;/div&gt;&lt;div&gt;&lt;div style=&quot;color: rgb(204, 204, 204); background-color: rgb(31, 31, 31); font-family: Consolas, &amp;quot;Courier New&amp;quot;, monospace; font-size: 14px; line-height: 19px; white-space: pre;&quot;&gt;&lt;span style=&quot;color: rgb(220, 220, 170);&quot;&gt;setAmplification&lt;/span&gt;(&lt;span style=&quot;color: rgb(181, 206, 168);&quot;&gt;0&lt;/span&gt;, &lt;span style=&quot;color: rgb(156, 220, 254);&quot;&gt;sockfd&lt;/span&gt;, &lt;span style=&quot;color: rgb(156, 220, 254);&quot;&gt;msg_rf_info_packet&lt;/span&gt;);&lt;/div&gt;&lt;/div&gt;&lt;div&gt;Then reset PDDAU&lt;/div&gt;&lt;div&gt;&lt;div style=&quot;color: rgb(204, 204, 204); background-color: rgb(31, 31, 31); font-family: Consolas, &amp;quot;Courier New&amp;quot;, monospace; font-size: 14px; line-height: 19px; white-space: pre;&quot;&gt;&lt;span style=&quot;color: #dcdcaa;&quot;&gt;resetPDDAU&lt;/span&gt;(&lt;span style=&quot;color: #9cdcfe;&quot;&gt;sockfd&lt;/span&gt;, &lt;span style=&quot;color: #d4d4d4;&quot;&gt;&amp;amp;&lt;/span&gt;&lt;span style=&quot;color: #9cdcfe;&quot;&gt;msg_pddau_info_packet&lt;/span&gt;);&lt;/div&gt;&lt;/div&gt;&lt;/div&gt;" style="rounded=1;whiteSpace=wrap;html=1;" vertex="1" parent="1">
          <mxGeometry x="10" y="320" width="460" height="110" as="geometry" />
        </mxCell>
        <mxCell id="PK5YH-Q8zY07cRHNymo_-10" style="edgeStyle=orthogonalEdgeStyle;rounded=0;orthogonalLoop=1;jettySize=auto;html=1;exitX=0.5;exitY=1;exitDx=0;exitDy=0;entryX=0.5;entryY=0;entryDx=0;entryDy=0;" edge="1" parent="1" source="PK5YH-Q8zY07cRHNymo_-7" target="PK5YH-Q8zY07cRHNymo_-9">
          <mxGeometry relative="1" as="geometry" />
        </mxCell>
        <mxCell id="PK5YH-Q8zY07cRHNymo_-7" value="&lt;div style=&quot;text-align: left;&quot;&gt;Set the command to data packet and send to PDDAU&lt;/div&gt;&lt;div&gt;&lt;div style=&quot;color: rgb(204, 204, 204); background-color: rgb(31, 31, 31); font-family: Consolas, &amp;quot;Courier New&amp;quot;, monospace; font-size: 14px; line-height: 19px; white-space: pre;&quot;&gt;&lt;div style=&quot;text-align: left;&quot;&gt;&lt;span style=&quot;color: rgb(156, 220, 254);&quot;&gt;ps8PDhdr&lt;/span&gt;-&amp;gt;&lt;span style=&quot;color: rgb(156, 220, 254);&quot;&gt;msg_id&lt;/span&gt; &lt;span style=&quot;color: rgb(212, 212, 212);&quot;&gt;=&lt;/span&gt; &lt;span style=&quot;color: rgb(86, 156, 214);&quot;&gt;MSG_PD_START_ID&lt;/span&gt;;&lt;/div&gt;&lt;div style=&quot;text-align: left;&quot;&gt;&lt;span style=&quot;color: rgb(156, 220, 254);&quot;&gt;ps8PDhdr&lt;/span&gt;-&amp;gt;&lt;span style=&quot;color: rgb(156, 220, 254);&quot;&gt;msg_type&lt;/span&gt; &lt;span style=&quot;color: rgb(212, 212, 212);&quot;&gt;=&lt;/span&gt; &lt;span style=&quot;color: rgb(86, 156, 214);&quot;&gt;MSG_REQUEST_TYPE&lt;/span&gt;;&lt;/div&gt;&lt;div style=&quot;text-align: left;&quot;&gt;&lt;span style=&quot;color: rgb(156, 220, 254);&quot;&gt;ps8PDhdr&lt;/span&gt;-&amp;gt;&lt;span style=&quot;color: rgb(156, 220, 254);&quot;&gt;body_len&lt;/span&gt; &lt;span style=&quot;color: rgb(212, 212, 212);&quot;&gt;=&lt;/span&gt; &lt;span style=&quot;color: rgb(181, 206, 168);&quot;&gt;0&lt;/span&gt;;&lt;/div&gt;&lt;div style=&quot;text-align: left;&quot;&gt;&lt;span style=&quot;color: rgb(156, 220, 254);&quot;&gt;iResult&lt;/span&gt; &lt;span style=&quot;color: rgb(212, 212, 212);&quot;&gt;=&lt;/span&gt; &lt;span style=&quot;color: rgb(220, 220, 170);&quot;&gt;write&lt;/span&gt;(&lt;span style=&quot;color: rgb(156, 220, 254);&quot;&gt;sockfd&lt;/span&gt;, &lt;span style=&quot;color: rgb(156, 220, 254);&quot;&gt;ps8PDhdr&lt;/span&gt;, &lt;span style=&quot;color: rgb(86, 156, 214);&quot;&gt;sizeof&lt;/span&gt;(&lt;span style=&quot;color: rgb(156, 220, 254);&quot;&gt;ps8PDhdr&lt;/span&gt;));&lt;/div&gt;&lt;/div&gt;&lt;/div&gt;&lt;div&gt;&lt;br&gt;&lt;/div&gt;" style="rounded=1;whiteSpace=wrap;html=1;" vertex="1" parent="1">
          <mxGeometry x="10" y="450" width="460" height="130" as="geometry" />
        </mxCell>
        <mxCell id="PK5YH-Q8zY07cRHNymo_-9" value="Call another continious loop function&lt;div&gt;&lt;div style=&quot;color: rgb(204, 204, 204); background-color: rgb(31, 31, 31); font-family: Consolas, &amp;quot;Courier New&amp;quot;, monospace; font-size: 14px; line-height: 19px; white-space: pre;&quot;&gt;&lt;span style=&quot;color: #dcdcaa;&quot;&gt;EnqueuePDData&lt;/span&gt;(&lt;span style=&quot;color: #9cdcfe;&quot;&gt;sockfd&lt;/span&gt;);&lt;/div&gt;&lt;/div&gt;&lt;div&gt;&lt;br&gt;&lt;/div&gt;" style="rounded=1;whiteSpace=wrap;html=1;" vertex="1" parent="1">
          <mxGeometry x="10" y="600" width="460" height="60" as="geometry" />
        </mxCell>
      </root>
    </mxGraphModel>
  </diagram>
</mxfile>
